<svg xmlns="http://www.w3.org/2000/svg">
    <g fill="none" fill-rule="evenodd" id="logo-icon" width="34" height="32" viewBox="0 0 34 32">
        <path fill="#F13D52" d="M0 9.81V2.6C0 1.44.93.505 2.079.505h29.073c1.147 0 2.079.937 2.079 2.093v13.738H0V9.81zm33.194 6.527C32.622 25.084 25.418 32 16.615 32 7.813 32 .61 25.084.037 16.337h33.157z"/>
        <path fill="#FFF" d="M15.27 21.49a1.84 1.84 0 0 1-.008-.01l-7.52-7.596a1.837 1.837 0 0 1 .003-2.58A1.794 1.794 0 0 1 10.3 11.3l6.277 6.343 6.412-6.478a1.768 1.768 0 0 1 2.518 0 1.813 1.813 0 0 1 0 2.543l-7.71 7.79a1.768 1.768 0 0 1-2.526-.009z"/>
    </g>
    <g fill="#89949C" fill-rule="evenodd" width="29" height="16" viewBox="0 0 29 16" id="bookmark-icon">
        <path d="M23.66 7.045c.094.092.365.137.365.14a.5.5 0 0 0 .34-.14l2.866-2.758a1.058 1.058 0 0 1 1.443-.005l.015.014a.98.98 0 0 1 .004 1.427l-4.306 4.133a.538.538 0 0 1-.362.144c0-.003-.287-.05-.387-.144l-4.333-4.133a.98.98 0 0 1 .006-1.427l.018-.014a1.067 1.067 0 0 1 1.45.005l2.88 2.758M10.211 6.8h-.022c-.62 0-1.122-.502-1.122-1.122v-.023c0-.619.502-1.122 1.122-1.122h.022c.62 0 1.122.503 1.122 1.122v.023c0 .62-.502 1.122-1.122 1.122"/>
        <path d="M13.547 2.32l-.264 5.8a.569.569 0 0 1-.165.374l-4.252 4.252a.567.567 0 0 1-.802 0L3.121 7.802a.567.567 0 0 1 0-.8l4.252-4.253c.1-.1.233-.159.374-.166l5.8-.263M14.696 0l-.054.001L6.986.35c-.282.013-.55.131-.75.331L.343 6.573a1.172 1.172 0 0 0 0 1.657l7.293 7.293a1.168 1.168 0 0 0 1.658 0l5.893-5.893c.2-.2.318-.467.33-.75l.349-7.655A1.172 1.172 0 0 0 14.696 0"/>
    </g>
    <g fill="none" fill-rule="evenodd" id="search-icon" width="14" height="14" viewBox="0 0 14 14">
        <path fill="#D5DBDE" fill-rule="evenodd" d="M5.99 1.997A3.998 3.998 0 0 1 9.984 5.99c0 .829-.256 1.626-.739 2.306l-.394.555-.555.394a3.961 3.961 0 0 1-2.306.739A3.998 3.998 0 0 1 1.997 5.99 3.998 3.998 0 0 1 5.99 1.997M5.99 0a5.99 5.99 0 0 0 0 11.98 5.958 5.958 0 0 0 3.463-1.107l2.813 2.814a.993.993 0 0 0 1.406 0l.015-.015c.387-.388.446-1.036 0-1.406l-2.814-2.813a5.958 5.958 0 0 0 1.108-3.463A5.99 5.99 0 0 0 5.99 0"/>
    </g>
    <g fill="#89949C" fill-rule="evenodd" id="video-icon" width="21" height="17" viewBox="0 0 21 17">
        <path d="M2.294 2.294h16.055v11.468H2.294V2.294zM19.496 0H1.146C.514 0 0 .513 0 1.147v13.762c0 .633.513 1.147 1.147 1.147h18.349c.634 0 1.147-.514 1.147-1.147V1.147C20.643.513 20.13 0 19.496 0z"/>
        <path d="M4.587.023h2.294v16.033H4.587zM13.762.023h2.294v16.033h-2.294zM2.294 4.587h2.293v2.294H2.294zM2.294 9.175h2.293v2.293H2.294zM16.056 4.587h2.293v2.294h-2.293zM16.056 9.175h2.293v2.293h-2.293z"/>
    </g>
    <g fill="#89949C" fill-rule="evenodd" id="pic-image" width="18" height="16" viewBox="0 0 18 16">
        <path d="M8 6a2 2 0 1 1-4 0 2 2 0 0 1 4 0M4.29 15.71a.99.99 0 0 1 0-1.403l8.017-8.017a.99.99 0 1 1 1.402 1.402L5.694 15.71a.99.99 0 0 1-1.402 0"/>
        <path d="M16.317 11.711l-4.028-4.028a.987.987 0 0 1 1.394-1.394l4.029 4.028a.986.986 0 0 1-1.395 1.394"/>
        <path d="M17 0H1a1 1 0 0 0-1 1v14a1 1 0 0 0 1 1h16a1 1 0 0 0 1-1V1a1 1 0 0 0-1-1zm-1 13.5a.5.5 0 0 1-.5.5h-13a.5.5 0 0 1-.5-.5v-11a.5.5 0 0 1 .5-.5h13a.5.5 0 0 1 .5.5v11z"/>
    </g>
    <g fill="none" fill-rule="evenodd" id="star-icon" width="17" height="17" viewBox="0 0 17 17">
	    <path fill="#89949C" fill-rule="evenodd" d="M8.242 3.128l.785 2.048c.434.931 1.3 1.58 2.314 1.736l2.053.337-1.62 1.538a3.082 3.082 0 0 0-.826 2.628l.385 2.016-1.6-.795c-.455-.253-.97-.235-1.49-.235s-1.037-.018-1.492.235l-1.6.795.386-2.016a3.082 3.082 0 0 0-.827-2.628L3.09 7.249l2.054-.337a3.062 3.062 0 0 0 2.314-1.736l.784-2.048m0-3.128a.996.996 0 0 0-.913.582L5.59 4.305c-.142.305-.428.52-.76.57l-3.975.61a1.009 1.009 0 0 0-.57 1.7l2.945 3.037c.222.228.323.549.272.864l-.686 4.226a1.01 1.01 0 0 0 .996 1.172c.162 0 .33-.04.49-.129l3.45-1.918a1.004 1.004 0 0 1 .98 0l3.45 1.918c.16.09.327.13.489.13a1.01 1.01 0 0 0 .996-1.173l-.686-4.226c-.05-.315.05-.636.272-.864l2.945-3.037a1.009 1.009 0 0 0-.57-1.7l-3.975-.61a1.008 1.008 0 0 1-.76-.57L9.156.582A.996.996 0 0 0 8.242 0"/>
	</g>
	<g fill="#89949C" fill-rule="evenodd" id="list-icon" width="15" height="19" viewBox="0 0 15 19">
        <path d="M14.232 6.531a.639.639 0 0 0-.18-.555L8.274.198a.639.639 0 0 0-.555-.18V0H1.187C.531 0 0 .531 0 1.188v16.625C0 18.468.531 19 1.188 19h11.874c.657 0 1.188-.531 1.188-1.188V6.533h-.018zm-2.95 10.094H2.968a.594.594 0 0 1-.594-.594V2.97c0-.328.266-.594.594-.594H6.53c.328 0 .594.266.594.594v3.483c0 .372.301.673.673.673h3.483c.328 0 .594.266.594.594v8.312a.594.594 0 0 1-.594.594z"/>
        <rect width="3.563" height="2.375" x="4.156" y="8.906" rx="1"/>
        <rect width="5.938" height="2.375" x="4.156" y="12.469" rx="1"/>
    </g>
    <g fill="none" fill-rule="evenodd" id="check-icon" width="16" height="15" viewBox="0 0 16 15">
        <path fill="#49BCB7" d="M0 4.599v-3.38a.99.99 0 0 1 1-.982h14c.551 0 1 .44 1 .981V7.658H0v-3.06zm15.982 3.06C15.707 11.758 12.238 15 8 15 3.762 15 .293 11.758.018 7.658h15.964z"/>
        <path fill="#FFF" d="M7.352 10.073a.878.878 0 0 1-.004-.004l-3.62-3.561a.845.845 0 0 1 .001-1.21.88.88 0 0 1 1.23-.001L7.98 8.27l3.087-3.037a.868.868 0 0 1 1.213 0 .834.834 0 0 1 0 1.193l-3.712 3.65a.868.868 0 0 1-1.217-.003z"/>
    </g>
</svg>
